<svg width="178" height="176" viewBox="0 0 178 176" fill="none" xmlns="http://www.w3.org/2000/svg">
<g filter="url(#filter0_d_11_3)">
<path d="M146 85.2526C146 125.43 113.317 158 73 158C32.6832 158 0 125.43 0 85.2526C0 45.0753 32.6832 12 73 12C113.317 12 146 45.0753 146 85.2526Z" fill="black"/>
</g>
<path d="M129 84C129 114.928 103.928 140 73 140C42.0721 140 17 114.928 17 84C17 53.0721 42.0721 28 73 28C103.928 28 129 53.0721 129 84Z" fill="#F1EAEA"/>
<path d="M129 84C129 114.928 103.928 140 73 140C42.0721 140 17 114.928 17 84C17 53.0721 42.0721 28 73 28C103.928 28 129 53.0721 129 84Z" fill="url(#paint0_linear_11_3)"/>
<g filter="url(#filter1_d_11_3)">
<path d="M49.7351 69.7869L65.8232 84.5L49.7309 99.2175C49.3274 98.815 49.0799 98.2441 49.0799 97.6097V71.3903C49.0799 70.7581 49.3316 70.1894 49.7351 69.7869ZM96.267 69.7825C96.6705 70.185 96.918 70.7559 96.918 71.3903V97.6097C96.918 98.2419 96.6663 98.8106 96.2628 99.2131L80.1747 84.5L96.267 69.7825ZM78.6189 85.9241L93.7981 99.8125H52.1998L67.379 85.9241L72.999 91.0625L78.6189 85.9241ZM51.1682 67C48.8657 67 47 68.9578 47 71.3619V97.6381C47 100.047 48.8511 102 51.1682 102H94.8318C97.1343 102 99 100.042 99 97.6381V71.3619C99 68.9534 97.1489 67 94.8318 67H51.1682ZM72.999 88.2188L52.1998 69.1875H93.7981L72.999 88.2188Z" fill="white"/>
</g>
<defs>
<filter id="filter0_d_11_3" x="0" y="0" width="178" height="176" filterUnits="userSpaceOnUse" color-interpolation-filters="sRGB">
<feFlood flood-opacity="0" result="BackgroundImageFix"/>
<feColorMatrix in="SourceAlpha" type="matrix" values="0 0 0 0 0 0 0 0 0 0 0 0 0 0 0 0 0 0 127 0" result="hardAlpha"/>
<feOffset dx="17" dy="3"/>
<feGaussianBlur stdDeviation="7.5"/>
<feComposite in2="hardAlpha" operator="out"/>
<feColorMatrix type="matrix" values="0 0 0 0 1 0 0 0 0 1 0 0 0 0 1 0 0 0 0.25 0"/>
<feBlend mode="normal" in2="BackgroundImageFix" result="effect1_dropShadow_11_3"/>
<feBlend mode="normal" in="SourceGraphic" in2="effect1_dropShadow_11_3" result="shape"/>
</filter>
<filter id="filter1_d_11_3" x="47" y="66" width="71" height="53" filterUnits="userSpaceOnUse" color-interpolation-filters="sRGB">
<feFlood flood-opacity="0" result="BackgroundImageFix"/>
<feColorMatrix in="SourceAlpha" type="matrix" values="0 0 0 0 0 0 0 0 0 0 0 0 0 0 0 0 0 0 127 0" result="hardAlpha"/>
<feOffset dx="10" dy="8"/>
<feGaussianBlur stdDeviation="4.5"/>
<feComposite in2="hardAlpha" operator="out"/>
<feColorMatrix type="matrix" values="0 0 0 0 0 0 0 0 0 0 0 0 0 0 0 0 0 0 0.7 0"/>
<feBlend mode="normal" in2="BackgroundImageFix" result="effect1_dropShadow_11_3"/>
<feBlend mode="normal" in="SourceGraphic" in2="effect1_dropShadow_11_3" result="shape"/>
</filter>
<linearGradient id="paint0_linear_11_3" x1="33.5" y1="45.5" x2="114" y2="120.5" gradientUnits="userSpaceOnUse">
<stop stop-color="#DD432E"/>
<stop offset="1" stop-color="#942827"/>
</linearGradient>
</defs>
</svg>
